<?xml version="1.0" encoding="utf-8"?>
<!-- Generator: Adobe Illustrator 27.3.1, SVG Export Plug-In . SVG Version: 6.00 Build 0)  -->
<svg version="1.1" id="Layer_1" xmlns="http://www.w3.org/2000/svg" xmlns:xlink="http://www.w3.org/1999/xlink" x="0px" y="0px"
	 viewBox="0 0 192 192" style="enable-background:new 0 0 192 192;" xml:space="preserve">
<style type="text/css">
	.st0{stroke:#000000;stroke-miterlimit:10;}
	.st1{fill:#FE1101;stroke:#000000;stroke-miterlimit:10;}
	.st2{fill:#FFFF00;stroke:#000000;stroke-miterlimit:10;}
	.st3{fill:#0238D0;stroke:#000000;stroke-miterlimit:10;}
	.st4{fill:#FFFFFF;}
	.st5{fill:#0238D0;stroke:#000000;stroke-width:0.25;stroke-miterlimit:10;}
	.st6{fill:#FE1101;stroke:#000000;stroke-width:0.25;stroke-miterlimit:10;}
	.st7{fill:#FFFF00;stroke:#000000;stroke-width:0.25;stroke-miterlimit:10;}
</style>
<g>
	<g>
		<path class="st0" d="M192,85.2V192H0v-75.1c0,0,0,0,0,0c3.7-2.3,7.8-4.4,12.2-6.3c0,0,0,0,0,0c6.9-2.9,14.8-5.2,23.6-6.7
			c5.1-0.9,10.2-1.7,15.3-2.5c3.2,10.7,10.1,19.8,19.3,25.8c7.4,4.9,16.3,7.7,25.8,7.7c12.8,0,24.4-5.1,32.9-13.4
			c7.6-7.4,12.7-17.4,13.9-28.5c0.1-1.1,0.2-2.3,0.2-3.4C163.9,87.4,180.7,86.1,192,85.2z"/>
		<path class="st1" d="M192,0.9v88.9l-48.9,3.1c0.1-1.1,0.2-2.3,0.2-3.4c0-0.5,0-1,0-1.6c0-9.5-2.8-18.3-7.7-25.7
			C127.3,49.5,112.8,41,96.3,41c-6.3,0-12.4,1.2-17.9,3.5c-7.9,3.2-14.7,8.5-19.7,15.1c-3.2,4.2-5.6,8.9-7.3,14
			c-1.4,4.5-2.2,9.3-2.2,14.3c0,3.7,0.4,7.4,1.3,10.8l-29.7,1.9l0,0l-6.5,0.4l22.8-37.7l0,0L74.9,0.9H192z"/>
		<path class="st2" d="M70.5,127.1c-37.7,8.6-58.7,26.2-70.4,42V79.8c10.8-7,23.2-12.8,37-16.5c0,0,0,0,0,0c6.8-1.8,14-3.1,21.6-3.7
			c-3.2,4.2-5.6,8.9-7.3,14c-1.4,4.5-2.2,9.3-2.2,14.3c0,3.7,0.4,7.4,1.3,10.8c0.2,0.9,0.4,1.7,0.7,2.6
			C54.4,112,61.3,121.1,70.5,127.1z"/>
		<path class="st2" d="M192,48.4v79c-12.9-3.7-32.6-6.3-62.8-5.9c7.6-7.4,12.7-17.4,13.9-28.5c0.1-1.1,0.2-2.3,0.2-3.4
			c0-0.5,0-1,0-1.6c0-9.5-2.8-18.3-7.7-25.7C161.1,60.6,179.4,54.6,192,48.4z"/>
		<path class="st3" d="M98.4,0.9c-3,11.3-8.9,27.4-20,43.6c-7.9,3.2-14.7,8.5-19.7,15.1c-3.2,4.2-5.6,8.9-7.3,14
			c-1.8,1.4-3.6,2.8-5.5,4.2c-9.1,6.6-17.5,14.4-25.1,22.7c0,0,0,0,0,0c-2.9,3.2-5.7,6.5-8.5,9.9c0,0,0,0,0,0.1
			C7.9,116,3.8,121.5,0,127c0,0,0,0,0,0.1V0.9H98.4z"/>
	</g>
	<path d="M123.7,72.5v29.6c0,5.6-4.6,10.2-10.3,10.2H79.1c-5.7,0-10.3-4.6-10.3-10.2V72.5c0-5.6,4.6-10.2,10.3-10.2h34.3
		C119.1,62.3,123.7,66.9,123.7,72.5z"/>
	<path class="st4" d="M71.1,72.5v5.7h50.3v-5.7c0-4.4-3.6-8-8-8H79.1C74.7,64.5,71.1,68.1,71.1,72.5z"/>
	<path class="st4" d="M121.4,102.1V80.5H71.1v21.6c0,4.4,3.6,8,8,8h34.3C117.8,110,121.4,106.5,121.4,102.1z"/>
	<path class="st5" d="M87.1,95.2v9.1c0,0.6-0.5,1.1-1.1,1.1s-1.1-0.5-1.1-1.1v-9.1c0-0.6,0.5-1.1,1.1-1.1S87.1,94.6,87.1,95.2z"/>
	<path class="st5" d="M106.5,96.4c-0.6,0-1.1,0.5-1.1,1.1v6.8c0,0.6,0.5,1.1,1.1,1.1s1.1-0.5,1.1-1.1v-6.8
		C107.7,96.9,107.2,96.4,106.5,96.4z"/>
	<path class="st5" d="M92.8,85c-0.6,0-1.1,0.5-1.1,1.1v18.2c0,0.6,0.5,1.1,1.1,1.1c0.6,0,1.1-0.5,1.1-1.1V86.2
		C94,85.5,93.5,85,92.8,85z"/>
	<path class="st5" d="M99.7,89.6c-0.6,0-1.1,0.5-1.1,1.1v13.6c0,0.6,0.5,1.1,1.1,1.1c0.6,0,1.1-0.5,1.1-1.1V90.7
		C100.8,90.1,100.3,89.6,99.7,89.6z"/>
	<ellipse class="st6" cx="78" cy="71.4" rx="2.3" ry="2.3"/>
	<ellipse class="st7" cx="84.8" cy="71.4" rx="2.3" ry="2.3"/>
	<ellipse class="st5" cx="91.7" cy="71.4" rx="2.3" ry="2.3"/>
</g>
</svg>
