<?xml version="1.0" encoding="utf-8"?>
<!-- Generator: Adobe Illustrator 27.3.1, SVG Export Plug-In . SVG Version: 6.00 Build 0)  -->
<svg version="1.1" id="Layer_1" xmlns="http://www.w3.org/2000/svg" xmlns:xlink="http://www.w3.org/1999/xlink" x="0px" y="0px"
	 viewBox="0 0 512 512" style="enable-background:new 0 0 512 512;" xml:space="preserve">
<style type="text/css">
	.st0{fill:#134E8E;}
	.st1{fill:#FFFFFF;}
</style>
<path class="st0" d="M85,0h342c46.9,0,85,38.1,85,85v342c0,46.9-38.1,85-85,85H85c-46.9,0-85-38.1-85-85V85C0,38.1,38.1,0,85,0z"/>
<path class="st1" d="M362.5,96.4H169.3c-32,0-58,26-58,58v103c0,3.6,2.9,6.4,6.4,6.4s6.4-2.9,6.4-6.4v-58h283.3v45.1
	c0,3.6,2.9,6.4,6.4,6.4c3.6,0,6.4-2.9,6.4-6.4v-90.1C420.4,122.4,394.4,96.4,362.5,96.4z M124.2,186.5v-32.2
	c0-24.9,20.2-45.1,45.1-45.1h193.2c24.9,0,45.1,20.2,45.1,45.1v32.2H124.2z M175.7,147.9c0,7.1-5.8,12.9-12.9,12.9
	c-7.1,0-12.9-5.8-12.9-12.9c0-7.1,5.8-12.9,12.9-12.9C170,135,175.7,140.8,175.7,147.9z M214.4,147.9c0,7.1-5.8,12.9-12.9,12.9
	c-7.1,0-12.9-5.8-12.9-12.9c0-7.1,5.8-12.9,12.9-12.9C208.6,135,214.4,140.8,214.4,147.9z M253,147.9c0,7.1-5.8,12.9-12.9,12.9
	c-7.1,0-12.9-5.8-12.9-12.9c0-7.1,5.8-12.9,12.9-12.9C247.2,135,253,140.8,253,147.9z M188.6,302.4c-14.2,0-25.8,11.6-25.8,25.8
	c0,14.2,11.6,25.8,25.8,25.8c14.2,0,25.8-11.6,25.8-25.8C214.4,314,202.8,302.4,188.6,302.4z M188.6,341.1
	c-7.1,0-12.9-5.8-12.9-12.9c0-7.1,5.8-12.9,12.9-12.9c7.1,0,12.9,5.8,12.9,12.9C201.5,335.3,195.7,341.1,188.6,341.1z M257.3,303.8
	c1.3-5,0.6-10.2-2-14.6c-2.6-4.5-6.8-7.6-11.8-8.9c-5-1.3-10.2-0.6-14.7,2l-2.9,1.7c-5.3-4.4-11.4-7.9-18.1-10.2v-3.5
	c0-10.7-8.7-19.3-19.3-19.3c-10.7,0-19.3,8.7-19.3,19.3v3.5c-6.7,2.3-12.8,5.8-18.1,10.2l-2.9-1.7c-4.4-2.6-9.6-3.3-14.7-2
	c-5,1.3-9.2,4.5-11.8,8.9c-2.6,4.5-3.3,9.7-2,14.7c1.3,5,4.5,9.2,8.9,11.8l3,1.8c-0.8,3.8-1.2,7.3-1.2,10.8c0,3.5,0.4,7,1.2,10.8
	l-3,1.8c-4.5,2.6-7.6,6.8-8.9,11.8c-1.3,5-0.6,10.2,2,14.6c2.6,4.5,6.8,7.6,11.8,8.9c5,1.3,10.2,0.6,14.7-2l2.9-1.7
	c5.3,4.4,11.4,7.9,18.1,10.2v3.5c0,10.7,8.7,19.3,19.3,19.3c10.7,0,19.3-8.7,19.3-19.3v-3.5c6.7-2.3,12.8-5.8,18.1-10.2l2.9,1.7
	c4.4,2.6,9.6,3.3,14.7,2c5-1.3,9.2-4.5,11.8-8.9c2.6-4.5,3.3-9.7,2-14.7c-1.3-5-4.5-9.2-8.9-11.8l-3-1.8c0.8-3.8,1.2-7.3,1.2-10.8
	c0-3.5-0.4-7-1.2-10.8l3-1.8C252.9,313,256,308.8,257.3,303.8z M231.8,316c1.3,4.6,1.9,8.5,1.9,12.2c0,3.7-0.6,7.6-1.9,12.2
	c-0.8,2.8,0.4,5.8,2.9,7.3l7.2,4.2c3.1,1.8,4.1,5.7,2.3,8.8c-1.7,3-5.9,4.1-8.8,2.3l-7-4.1c-2.5-1.5-5.7-1.1-7.8,1
	c-5.6,5.6-12.7,9.6-20.7,11.7c-2.8,0.7-4.8,3.3-4.8,6.2v8.3c0,3.5-2.9,6.4-6.4,6.4s-6.4-2.9-6.4-6.4v-8.3c0-2.9-2-5.5-4.8-6.2
	c-8-2.1-15.2-6.1-20.7-11.7c-1.2-1.2-2.9-1.9-4.6-1.9c-1.1,0-2.2,0.3-3.2,0.9l-7,4.1c-3,1.8-7.1,0.7-8.8-2.3c-1.8-3.1-0.8-7,2.3-8.8
	l7.2-4.2c2.5-1.5,3.7-4.5,2.9-7.3c-1.3-4.6-1.9-8.5-1.9-12.2c0-3.7,0.6-7.6,1.9-12.2c0.8-2.8-0.4-5.8-2.9-7.3l-7.2-4.2
	c-3.1-1.8-4.1-5.7-2.3-8.8c1.7-3,5.9-4.1,8.8-2.3l7,4.1c2.5,1.5,5.7,1.1,7.8-1c5.6-5.6,12.7-9.6,20.7-11.7c2.8-0.7,4.8-3.3,4.8-6.2
	v-8.3c0-3.5,2.9-6.4,6.4-6.4s6.4,2.9,6.4,6.4v8.3c0,2.9,2,5.5,4.8,6.2c8,2.1,15.2,6.1,20.7,11.7c2.1,2.1,5.3,2.5,7.8,1l7-4.1
	c3-1.8,7.1-0.7,8.8,2.3c1.8,3.1,0.8,7-2.3,8.8l-7.2,4.2C232.2,310.2,231,313.2,231.8,316z M384.4,325.7l25-12.5
	c6.6-3.3,10.8-10.2,10.7-17.6c-0.1-7.4-4.6-14.2-11.9-17.5L295,239.2c-8.2-2.7-17-0.7-22.9,5.3c-6.2,6.2-8.1,14.9-5.2,23.4
	c0,0,38.9,113,39,113.2c3.1,6.8,9.9,11.2,17.6,11.3c7.4,0,14-4.1,17.3-10.7l12.7-25.3l29.8,29.6c8.1,8.4,22.8,8.4,30.9,0
	c8.5-8.1,8.5-22.8,0-30.9L384.4,325.7L384.4,325.7z M404.9,377c-3.3,3.3-9.3,3.4-12.7,0l-36.1-35.9c-1.4-1.5-3.5-2.2-5.6-1.8
	c-2,0.3-3.8,1.6-4.7,3.5l-16.7,33.3c-1.1,2.2-3.3,3.6-5.7,3.6c-2.5,0-4.8-1.4-5.8-3.5L279,263.7c-1.3-3.8-0.5-7.4,2.1-10.1
	c2.5-2.5,6.3-3.4,9.7-2.2l112.5,38.7c2.3,1,3.7,3.3,3.8,5.8c0.1,2.4-1.3,4.7-3.5,5.8l-33,16.5c-1.9,0.9-3.1,2.7-3.5,4.7
	c-0.3,2,0.3,4.1,1.8,5.6l36,35.8c1.7,1.7,2.6,3.9,2.6,6.3S406.6,375.3,404.9,377L404.9,377z"/>
</svg>
