<?xml version="1.0" encoding="utf-8"?>
<!-- Generator: Adobe Illustrator 27.3.1, SVG Export Plug-In . SVG Version: 6.00 Build 0)  -->
<svg version="1.1" id="Layer_1" xmlns="http://www.w3.org/2000/svg" xmlns:xlink="http://www.w3.org/1999/xlink" x="0px" y="0px"
	 viewBox="0 0 512 512" style="enable-background:new 0 0 512 512;" xml:space="preserve">
<style type="text/css">
	.st0{fill:#134E8E;}
	.st1{fill:#FFFFFF;}
</style>
<path class="st0" d="M85,0h342c46.9,0,85,38.1,85,85v342c0,46.9-38.1,85-85,85H85c-46.9,0-85-38.1-85-85V85C0,38.1,38.1,0,85,0z"/>
<path class="st1" d="M207.1,300.7v51.1c0,3.5-2.9,6.4-6.4,6.4s-6.4-2.9-6.4-6.4v-51.1c0-3.5,2.9-6.4,6.4-6.4
	S207.1,297.2,207.1,300.7z M315.7,307.1c-3.5,0-6.4,2.9-6.4,6.4v38.3c0,3.5,2.9,6.4,6.4,6.4s6.4-2.9,6.4-6.4v-38.3
	C322,310,319.2,307.1,315.7,307.1z M239,243.2c-3.5,0-6.4,2.9-6.4,6.4v102.2c0,3.5,2.9,6.4,6.4,6.4c3.5,0,6.4-2.9,6.4-6.4V249.6
	C245.4,246.1,242.5,243.2,239,243.2z M277.3,268.8c-3.5,0-6.4,2.9-6.4,6.4v76.6c0,3.5,2.9,6.4,6.4,6.4s6.4-2.9,6.4-6.4v-76.6
	C283.7,271.6,280.9,268.8,277.3,268.8z M411.5,173v166c0,31.7-25.8,57.5-57.5,57.5H162.4c-31.7,0-57.5-25.8-57.5-57.5V173
	c0-31.7,25.8-57.5,57.5-57.5H354C385.7,115.5,411.5,141.3,411.5,173z M117.7,173v31.9h281V173c0-24.7-20.1-44.7-44.7-44.7H162.4
	C137.7,128.3,117.7,148.3,117.7,173z M398.7,339V217.7h-281V339c0,24.7,20.1,44.7,44.7,44.7H354C378.6,383.7,398.7,363.7,398.7,339z
	 M156,179.4c7.1,0,12.8-5.7,12.8-12.8c0-7.1-5.7-12.8-12.8-12.8s-12.8,5.7-12.8,12.8C143.2,173.6,148.9,179.4,156,179.4z
	 M194.3,179.4c7.1,0,12.8-5.7,12.8-12.8c0-7.1-5.7-12.8-12.8-12.8c-7.1,0-12.8,5.7-12.8,12.8C181.5,173.6,187.3,179.4,194.3,179.4z
	 M232.6,179.4c7.1,0,12.8-5.7,12.8-12.8c0-7.1-5.7-12.8-12.8-12.8c-7.1,0-12.8,5.7-12.8,12.8C219.9,173.6,225.6,179.4,232.6,179.4z"
	/>
</svg>
