<?xml version="1.0" encoding="utf-8"?>
<!-- Generator: Adobe Illustrator 27.3.1, SVG Export Plug-In . SVG Version: 6.00 Build 0)  -->
<svg version="1.1" id="Layer_1" xmlns="http://www.w3.org/2000/svg" xmlns:xlink="http://www.w3.org/1999/xlink" x="0px" y="0px"
	 viewBox="0 0 192 192" style="enable-background:new 0 0 192 192;" xml:space="preserve">
<style type="text/css">
	.st0{fill:#134E8E;}
	.st1{fill:#FFFFFF;}
</style>
<path class="st0" d="M32,0h128c17.7,0,32,14.3,32,32v128c0,17.7-14.3,32-32,32H32c-17.7,0-32-14.3-32-32V32C0,14.3,14.3,0,32,0z"/>
<path class="st1" d="M76.8,112.8v19.2c0,1.3-1.1,2.4-2.4,2.4s-2.4-1.1-2.4-2.4v-19.2c0-1.3,1.1-2.4,2.4-2.4S76.8,111.4,76.8,112.8z
	 M117.6,115.2c-1.3,0-2.4,1.1-2.4,2.4v14.4c0,1.3,1.1,2.4,2.4,2.4s2.4-1.1,2.4-2.4v-14.4C119.9,116.2,118.9,115.2,117.6,115.2z
	 M88.8,91.2c-1.3,0-2.4,1.1-2.4,2.4v38.3c0,1.3,1.1,2.4,2.4,2.4c1.3,0,2.4-1.1,2.4-2.4V93.6C91.2,92.3,90.1,91.2,88.8,91.2z
	 M103.2,100.8c-1.3,0-2.4,1.1-2.4,2.4v28.7c0,1.3,1.1,2.4,2.4,2.4c1.3,0,2.4-1.1,2.4-2.4v-28.7C105.6,101.9,104.5,100.8,103.2,100.8
	z M153.5,64.9v62.3c0,11.9-9.7,21.6-21.6,21.6H60.1c-11.9,0-21.6-9.7-21.6-21.6V64.9c0-11.9,9.7-21.6,21.6-21.6h71.8
	C143.8,43.3,153.5,53,153.5,64.9z M43.3,64.9v12h105.4v-12c0-9.2-7.5-16.8-16.8-16.8H60.1C50.8,48.1,43.3,55.6,43.3,64.9z
	 M148.7,127.1V81.6H43.3v45.5c0,9.2,7.5,16.8,16.8,16.8h71.8C141.2,143.9,148.7,136.4,148.7,127.1z M57.7,67.3
	c2.6,0,4.8-2.1,4.8-4.8s-2.1-4.8-4.8-4.8c-2.6,0-4.8,2.1-4.8,4.8S55,67.3,57.7,67.3z M72.1,67.3c2.6,0,4.8-2.1,4.8-4.8
	s-2.1-4.8-4.8-4.8c-2.6,0-4.8,2.1-4.8,4.8S69.4,67.3,72.1,67.3z M86.4,67.3c2.6,0,4.8-2.1,4.8-4.8s-2.1-4.8-4.8-4.8
	c-2.6,0-4.8,2.1-4.8,4.8S83.8,67.3,86.4,67.3z"/>
</svg>
