<?xml version="1.0" encoding="utf-8"?>
<!-- Generator: Adobe Illustrator 26.0.1, SVG Export Plug-In . SVG Version: 6.00 Build 0)  -->
<svg version="1.1" id="Layer_1" xmlns="http://www.w3.org/2000/svg" xmlns:xlink="http://www.w3.org/1999/xlink" x="0px" y="0px"
	 viewBox="0 0 192 192" style="enable-background:new 0 0 192 192;" xml:space="preserve">
<style type="text/css">
	.st0{fill:#16476A;}
	.st1{fill:#FFFFFF;}
</style>
<rect class="st0" width="192" height="192"/>
<path class="st1" d="M156.3,100.9v5c0,12.5-10.2,22.6-22.6,22.6H98.5v20.1h25.1c1.4,0,2.5,1.1,2.5,2.5c0,1.4-1.1,2.5-2.5,2.5H68.3
	c-1.4,0-2.5-1.1-2.5-2.5c0-1.4,1.1-2.5,2.5-2.5h25.1v-20.1H58.3c-12.5,0-22.6-10.2-22.6-22.6V55.6C35.6,43.2,45.8,33,58.3,33H96
	c1.4,0,2.5,1.1,2.5,2.5S97.4,38,96,38H58.3c-9.7,0-17.6,7.9-17.6,17.6v50.3c0,9.7,7.9,17.6,17.6,17.6h75.4c9.7,0,17.6-7.9,17.6-17.6
	v-5c0-1.4,1.1-2.5,2.5-2.5C155.2,98.4,156.3,99.5,156.3,100.9z M156.3,52.5v15.7c-0.9,18.6-13.4,26.3-22.7,30.5
	c-1.5,0.7-3.2,1-4.8,1c-1.9,0-3.8-0.5-5.5-1.4c-9.2-5-21.4-13.5-22.3-30V52.5c0-6.5,4.1-12.3,10.3-14.3l14.1-4.7
	c2.1-0.7,4.4-0.7,6.5,0l14.1,4.7C152.2,40.2,156.4,46,156.3,52.5L156.3,52.5z M151.3,68.1V52.5c0-4.3-2.8-8.2-6.9-9.5l-14.1-4.7
	c-1.1-0.4-2.3-0.4-3.4,0L112.9,43c-4.1,1.4-6.9,5.2-6.9,9.5v15.7c0.7,13.7,10.9,21,19.7,25.7c1.8,1,4,1.1,5.9,0.2
	C140.4,90.2,150.6,83.6,151.3,68.1L151.3,68.1z M75.9,83.3c-5.5,0-10.1-4.5-10.1-10.1s4.5-10.1,10.1-10.1s10.1,4.5,10.1,10.1
	C85.9,78.8,81.4,83.3,75.9,83.3z M75.9,78.3c2.8,0,5-2.3,5-5s-2.3-5-5-5c-2.8,0-5,2.3-5,5C70.9,76,73.1,78.3,75.9,78.3z M56,105.6
	c-0.2,1.4,0.8,2.7,2.1,2.8c1.3,0.1,2.6-0.8,2.8-2.1c1.1-7.4,7.5-12.9,14.9-12.9c7.5,0,13.9,5.6,14.9,12.9c0.2,1.4,1.5,2.3,2.8,2.1
	c1.4-0.2,2.3-1.5,2.1-2.8c-1.4-9.8-10-17.2-19.9-17.2S57.4,95.7,56,105.6z M141.3,55.6c0,5.5-4.5,10.1-10.1,10.1v15.1h2.5
	c1.4,0,2.5,1.1,2.5,2.5c0,1.4-1.1,2.5-2.5,2.5h-2.5c-2.8,0-5-2.3-5-5V65.7c-5.5,0-10.1-4.5-10.1-10.1s4.5-10.1,10.1-10.1h5
	C136.7,45.6,141.3,50.1,141.3,55.6z M136.2,55.6c0-2.8-2.3-5-5-5h-5c-2.8,0-5,2.3-5,5c0,2.8,2.3,5,5,5h5
	C134,60.7,136.2,58.4,136.2,55.6z"/>
</svg>
