<?xml version="1.0" encoding="utf-8"?>
<!-- Generator: Adobe Illustrator 27.3.1, SVG Export Plug-In . SVG Version: 6.00 Build 0)  -->
<svg version="1.1" id="Layer_1" xmlns="http://www.w3.org/2000/svg" xmlns:xlink="http://www.w3.org/1999/xlink" x="0px" y="0px"
	 viewBox="0 0 512 512" style="enable-background:new 0 0 512 512;" xml:space="preserve">
<style type="text/css">
	.st0{stroke:#000000;stroke-miterlimit:10;}
	.st1{fill:#FE1101;stroke:#000000;stroke-miterlimit:10;}
	.st2{fill:#FFFF00;stroke:#000000;stroke-miterlimit:10;}
	.st3{fill:#0238D0;stroke:#000000;stroke-miterlimit:10;}
	.st4{fill:#FFFFFF;}
	.st5{fill:#0238D0;stroke:#000000;stroke-width:0.25;stroke-miterlimit:10;}
	.st6{fill:#FE1101;stroke:#000000;stroke-width:0.25;stroke-miterlimit:10;}
	.st7{fill:#FFFF00;stroke:#000000;stroke-width:0.25;stroke-miterlimit:10;}
</style>
<g>
	<g>
		<path class="st0" d="M512.4,225.9v286.5H-0.4V310.8c0,0,0.1,0,0.1-0.1c9.9-6.3,20.8-11.9,32.6-16.9c0,0,0.1,0,0.1,0
			c18.5-7.8,39.4-14,63-18c13.7-2.3,27.3-4.6,40.8-6.7c8.6,28.7,27.1,53.1,51.6,69.2c19.8,13,43.5,20.6,69,20.6
			c34.2,0,65.3-13.7,88-35.9c20.3-19.9,33.9-46.7,37.1-76.6c0.3-3,0.5-6.1,0.6-9.1C437.2,231.7,482.3,228.1,512.4,225.9z"/>
		<path class="st1" d="M512.4-0.4v238.5l-130.5,8.3c0.3-3,0.5-6.1,0.6-9.1c0-1.4,0.1-2.8,0.1-4.2c0-25.4-7.5-49.1-20.5-68.8
			c-22.5-34.3-61.2-57-105.3-57c-16.9,0-33.1,3.3-47.8,9.4c-21,8.6-39.1,22.8-52.6,40.6c-8.5,11.2-15.1,23.8-19.4,37.5
			c-3.8,12.1-5.9,24.9-5.9,38.3c0,10,1.2,19.8,3.4,29.1l-79.3,5l-0.1,0l-17.3,1.1l60.9-101.2l0,0l101-167.5H512.4z"/>
		<path class="st2" d="M187.8,338.3C87.1,361.4,30.9,408.5-0.3,450.9V211.3c29-18.7,61.9-34.4,98.9-44.2c0,0,0.1,0,0.1,0
			c18.2-4.8,37.5-8.2,57.7-9.8c-8.5,11.2-15.1,23.8-19.4,37.5c-3.8,12.1-5.9,24.9-5.9,38.3c0,10,1.2,19.8,3.4,29.1
			c0.6,2.3,1.2,4.6,1.8,6.9C144.8,297.8,163.3,322.2,187.8,338.3z"/>
		<path class="st2" d="M512.4,126.9v212C478,329,425.3,322,344.8,323c20.3-19.9,33.9-46.7,37.1-76.6c0.3-3,0.5-6.1,0.6-9.1
			c0-1.4,0.1-2.8,0.1-4.2c0-25.4-7.5-49.1-20.5-68.8C429.9,159.7,478.7,143.8,512.4,126.9z"/>
		<path class="st3" d="M262.4-0.4C254.3,30,238.7,73,209,116.7c-21,8.6-39.1,22.8-52.6,40.6c-8.5,11.2-15.1,23.8-19.4,37.5
			c-4.7,3.8-9.6,7.6-14.7,11.3c-24.3,17.7-46.7,38.6-67.1,61c0,0-0.1,0.1-0.1,0.1c-7.9,8.7-15.3,17.5-22.6,26.5c0,0-0.1,0.1-0.1,0.1
			c-11.6,14.5-22.5,29.3-32.6,44c0,0.1-0.1,0.1-0.1,0.2V-0.4H262.4z"/>
	</g>
	<path d="M329.9,191.7v79.4c0,15.1-12.3,27.5-27.5,27.5h-91.6c-15.1,0-27.5-12.3-27.5-27.5v-79.4c0-15.1,12.3-27.5,27.5-27.5h91.6
		C317.6,164.2,329.9,176.6,329.9,191.7z"/>
	<path class="st4" d="M189.6,191.7V207h134.3v-15.3c0-11.8-9.6-21.4-21.4-21.4h-91.6C199.1,170.3,189.6,179.9,189.6,191.7z"/>
	<path class="st4" d="M323.8,271.1v-58H189.6v58c0,11.8,9.6,21.4,21.4,21.4h91.6C314.3,292.4,323.8,282.8,323.8,271.1z"/>
	<path class="st5" d="M232.3,252.7v24.4c0,1.7-1.4,3.1-3.1,3.1s-3.1-1.4-3.1-3.1v-24.4c0-1.7,1.4-3.1,3.1-3.1
		S232.3,251.1,232.3,252.7z"/>
	<path class="st5" d="M284.2,255.8c-1.7,0-3.1,1.4-3.1,3.1v18.3c0,1.7,1.4,3.1,3.1,3.1s3.1-1.4,3.1-3.1v-18.3
		C287.2,257.2,285.8,255.8,284.2,255.8z"/>
	<path class="st5" d="M247.5,225.3c-1.7,0-3.1,1.4-3.1,3.1v48.8c0,1.7,1.4,3.1,3.1,3.1c1.7,0,3.1-1.4,3.1-3.1v-48.8
		C250.6,226.6,249.2,225.3,247.5,225.3z"/>
	<path class="st5" d="M265.9,237.5c-1.7,0-3.1,1.4-3.1,3.1v36.6c0,1.7,1.4,3.1,3.1,3.1c1.7,0,3.1-1.4,3.1-3.1v-36.6
		C268.9,238.9,267.5,237.5,265.9,237.5z"/>
	<circle class="st6" cx="207.9" cy="188.7" r="6.1"/>
	<circle class="st7" cx="226.2" cy="188.7" r="6.1"/>
	<circle class="st5" cx="244.5" cy="188.7" r="6.1"/>
</g>
</svg>
