<?xml version="1.0" encoding="utf-8"?>
<!-- Generator: Adobe Illustrator 27.3.1, SVG Export Plug-In . SVG Version: 6.00 Build 0)  -->
<svg version="1.1" id="Layer_1" xmlns="http://www.w3.org/2000/svg" xmlns:xlink="http://www.w3.org/1999/xlink" x="0px" y="0px"
	 viewBox="0 0 192 192" style="enable-background:new 0 0 192 192;" xml:space="preserve">
<style type="text/css">
	.st0{fill:#134E8E;}
	.st1{fill:#FFFFFF;}
</style>
<path class="st0" d="M32,0h128c17.7,0,32,14.3,32,32v128c0,17.7-14.3,32-32,32H32c-17.7,0-32-14.3-32-32V32C0,14.3,14.3,0,32,0z"/>
<path class="st1" d="M137.3,30H54.7C41.1,30,30,41.1,30,54.7v44c0,1.5,1.2,2.8,2.8,2.8c1.5,0,2.8-1.2,2.8-2.8V74h121v19.3
	c0,1.5,1.2,2.8,2.8,2.8c1.5,0,2.8-1.2,2.8-2.8V54.7C162,41.1,150.9,30,137.3,30z M35.5,68.5V54.7c0-10.6,8.6-19.3,19.3-19.3h82.5
	c10.6,0,19.3,8.6,19.3,19.3v13.8H35.5z M57.5,52c0,3-2.5,5.5-5.5,5.5c-3,0-5.5-2.5-5.5-5.5c0-3,2.5-5.5,5.5-5.5
	C55,46.5,57.5,49,57.5,52z M74,52c0,3-2.5,5.5-5.5,5.5c-3,0-5.5-2.5-5.5-5.5c0-3,2.5-5.5,5.5-5.5C71.5,46.5,74,49,74,52z M90.5,52
	c0,3-2.5,5.5-5.5,5.5S79.5,55,79.5,52c0-3,2.5-5.5,5.5-5.5S90.5,49,90.5,52z M63,118c-6.1,0-11,4.9-11,11s4.9,11,11,11s11-4.9,11-11
	S69.1,118,63,118z M63,134.5c-3,0-5.5-2.5-5.5-5.5c0-3,2.5-5.5,5.5-5.5s5.5,2.5,5.5,5.5C68.5,132,66,134.5,63,134.5z M92.3,118.6
	c0.6-2.1,0.3-4.4-0.9-6.3c-1.1-1.9-2.9-3.3-5-3.8c-2.1-0.6-4.4-0.3-6.3,0.9l-1.2,0.7c-2.3-1.9-4.9-3.4-7.7-4.4v-1.5
	c0-4.5-3.7-8.3-8.3-8.3s-8.3,3.7-8.3,8.3v1.5c-2.8,1-5.5,2.5-7.7,4.4l-1.2-0.7c-1.9-1.1-4.1-1.4-6.3-0.9c-2.1,0.6-3.9,1.9-5,3.8
	c-1.1,1.9-1.4,4.1-0.9,6.3c0.6,2.1,1.9,3.9,3.8,5l1.3,0.8c-0.3,1.6-0.5,3.1-0.5,4.6c0,1.5,0.2,3,0.5,4.6l-1.3,0.8
	c-1.9,1.1-3.3,2.9-3.8,5c-0.6,2.1-0.3,4.4,0.9,6.3c1.1,1.9,2.9,3.3,5,3.8c2.1,0.6,4.4,0.3,6.3-0.9l1.2-0.7c2.3,1.9,4.9,3.4,7.7,4.4
	v1.5c0,4.5,3.7,8.3,8.3,8.3s8.3-3.7,8.3-8.3v-1.5c2.8-1,5.5-2.5,7.7-4.4l1.2,0.7c1.9,1.1,4.1,1.4,6.3,0.9c2.1-0.6,3.9-1.9,5-3.8
	c1.1-1.9,1.4-4.1,0.9-6.3c-0.6-2.1-1.9-3.9-3.8-5l-1.3-0.8c0.3-1.6,0.5-3.1,0.5-4.6c0-1.5-0.2-3-0.5-4.6l1.3-0.8
	C90.4,122.5,91.8,120.7,92.3,118.6z M81.4,123.8c0.6,2,0.8,3.6,0.8,5.2c0,1.6-0.3,3.2-0.8,5.2c-0.3,1.2,0.2,2.5,1.3,3.1l3.1,1.8
	c1.3,0.8,1.8,2.5,1,3.8c-0.7,1.3-2.5,1.8-3.8,1l-3-1.7c-1.1-0.6-2.4-0.5-3.3,0.4c-2.4,2.4-5.4,4.1-8.8,5c-1.2,0.3-2.1,1.4-2.1,2.7
	v3.5c0,1.5-1.2,2.8-2.8,2.8s-2.8-1.2-2.8-2.8v-3.5c0-1.3-0.8-2.3-2.1-2.7c-3.4-0.9-6.5-2.6-8.8-5c-0.5-0.5-1.2-0.8-1.9-0.8
	c-0.5,0-1,0.1-1.4,0.4l-3,1.7c-1.3,0.8-3,0.3-3.8-1c-0.8-1.3-0.3-3,1-3.8l3.1-1.8c1.1-0.6,1.6-1.9,1.3-3.1c-0.6-2-0.8-3.6-0.8-5.2
	s0.3-3.2,0.8-5.2c0.3-1.2-0.2-2.5-1.3-3.1l-3.1-1.8c-1.3-0.8-1.8-2.5-1-3.8c0.7-1.3,2.5-1.7,3.8-1l3,1.7c1.1,0.6,2.4,0.5,3.3-0.4
	c2.4-2.4,5.4-4.1,8.8-5c1.2-0.3,2.1-1.4,2.1-2.7v-3.5c0-1.5,1.2-2.8,2.8-2.8s2.8,1.2,2.8,2.8v3.5c0,1.3,0.8,2.3,2.1,2.7
	c3.4,0.9,6.5,2.6,8.8,5c0.9,0.9,2.3,1.1,3.3,0.4l3-1.7c1.3-0.8,3-0.3,3.8,1c0.8,1.3,0.3,3-1,3.8l-3.1,1.8
	C81.6,121.3,81.1,122.6,81.4,123.8z M146.6,127.9l10.7-5.3c2.8-1.4,4.6-4.4,4.6-7.5c0-3.2-1.9-6.1-5.1-7.5L108.4,91
	c-3.5-1.2-7.2-0.3-9.8,2.3c-2.6,2.6-3.5,6.4-2.2,10c0,0,16.6,48.3,16.6,48.4c1.3,2.9,4.2,4.8,7.5,4.8c3.1,0,6-1.7,7.4-4.6l5.4-10.8
	l12.7,12.7c3.5,3.6,9.8,3.6,13.2,0c3.6-3.5,3.6-9.8,0-13.2L146.6,127.9L146.6,127.9z M155.4,149.9c-1.4,1.4-4,1.4-5.4,0l-15.4-15.3
	c-0.6-0.6-1.5-0.9-2.4-0.8c-0.9,0.1-1.6,0.7-2,1.5l-7.1,14.2c-0.5,0.9-1.4,1.5-2.4,1.5c-1.1,0-2-0.6-2.5-1.5l-16.5-48
	c-0.6-1.6-0.2-3.2,0.9-4.3c1.1-1.1,2.7-1.5,4.1-1l48.1,16.5c1,0.4,1.6,1.4,1.6,2.5c0,1-0.6,2-1.5,2.5l-14.1,7
	c-0.8,0.4-1.3,1.1-1.5,2c-0.1,0.9,0.1,1.8,0.8,2.4l15.4,15.3c0.7,0.7,1.1,1.7,1.1,2.7S156.1,149.1,155.4,149.9L155.4,149.9z"/>
</svg>
